<svg xmlns="http://www.w3.org/2000/svg" viewBox="0 0 1280 320" shape-render="crispEdges" width="1280" height="320">
  <rect fill="#0a0a12" width="1280" height="320"/>
  <rect fill="#d4a843" x="608" y="72" width="64" height="8"/>
  <rect fill="#d4a843" x="64" y="80" width="168" height="8"/>
  <rect fill="#d4a843" x="608" y="80" width="64" height="8"/>
  <rect fill="#d4a843" x="1048" y="80" width="168" height="8"/>
  <rect fill="#d4a843" x="48" y="88" width="200" height="8"/>
  <rect fill="#d4a843" x="608" y="88" width="64" height="8"/>
  <rect fill="#d4a843" x="1032" y="88" width="200" height="8"/>
  <rect fill="#d4a843" x="32" y="96" width="232" height="8"/>
  <rect fill="#d4a843" x="608" y="96" width="64" height="8"/>
  <rect fill="#d4a843" x="720" y="96" width="40" height="8"/>
  <rect fill="#d4a843" x="1016" y="96" width="232" height="8"/>
  <rect fill="#d4a843" x="736" y="128" width="8" height="8"/>
  <rect fill="#d4a843" x="96" y="200" width="200" height="8"/>
  <rect fill="#d4a843" x="984" y="200" width="200" height="8"/>
  <rect fill="#d4a843" x="112" y="208" width="168" height="8"/>
  <rect fill="#d4a843" x="416" y="208" width="16" height="8"/>
  <rect fill="#d4a843" x="480" y="208" width="16" height="8"/>
  <rect fill="#d4a843" x="576" y="208" width="16" height="8"/>
  <rect fill="#d4a843" x="624" y="208" width="16" height="8"/>
  <rect fill="#d4a843" x="720" y="208" width="48" height="8"/>
  <rect fill="#d4a843" x="1000" y="208" width="168" height="8"/>
  <rect fill="#d4a843" x="416" y="216" width="16" height="8"/>
  <rect fill="#d4a843" x="480" y="216" width="16" height="8"/>
  <rect fill="#d4a843" x="576" y="216" width="16" height="8"/>
  <rect fill="#d4a843" x="624" y="216" width="16" height="8"/>
  <rect fill="#d4a843" x="720" y="216" width="48" height="8"/>
  <rect fill="#d4a843" x="416" y="224" width="32" height="8"/>
  <rect fill="#d4a843" x="464" y="224" width="32" height="8"/>
  <rect fill="#d4a843" x="576" y="224" width="16" height="8"/>
  <rect fill="#d4a843" x="608" y="224" width="16" height="8"/>
  <rect fill="#d4a843" x="720" y="224" width="16" height="8"/>
  <rect fill="#d4a843" x="416" y="232" width="32" height="8"/>
  <rect fill="#d4a843" x="464" y="232" width="32" height="8"/>
  <rect fill="#d4a843" x="576" y="232" width="16" height="8"/>
  <rect fill="#d4a843" x="608" y="232" width="16" height="8"/>
  <rect fill="#d4a843" x="720" y="232" width="16" height="8"/>
  <rect fill="#d4a843" x="416" y="240" width="16" height="8"/>
  <rect fill="#d4a843" x="448" y="240" width="16" height="8"/>
  <rect fill="#d4a843" x="480" y="240" width="16" height="8"/>
  <rect fill="#d4a843" x="576" y="240" width="32" height="8"/>
  <rect fill="#d4a843" x="720" y="240" width="32" height="8"/>
  <rect fill="#d4a843" x="416" y="248" width="16" height="8"/>
  <rect fill="#d4a843" x="448" y="248" width="16" height="8"/>
  <rect fill="#d4a843" x="480" y="248" width="16" height="8"/>
  <rect fill="#d4a843" x="576" y="248" width="32" height="8"/>
  <rect fill="#d4a843" x="720" y="248" width="32" height="8"/>
  <rect fill="#d4a843" x="416" y="256" width="16" height="8"/>
  <rect fill="#d4a843" x="480" y="256" width="16" height="8"/>
  <rect fill="#d4a843" x="576" y="256" width="16" height="8"/>
  <rect fill="#d4a843" x="608" y="256" width="16" height="8"/>
  <rect fill="#d4a843" x="720" y="256" width="16" height="8"/>
  <rect fill="#d4a843" x="416" y="264" width="16" height="8"/>
  <rect fill="#d4a843" x="480" y="264" width="16" height="8"/>
  <rect fill="#d4a843" x="576" y="264" width="16" height="8"/>
  <rect fill="#d4a843" x="608" y="264" width="16" height="8"/>
  <rect fill="#d4a843" x="720" y="264" width="16" height="8"/>
  <rect fill="#d4a843" x="416" y="272" width="16" height="8"/>
  <rect fill="#d4a843" x="480" y="272" width="16" height="8"/>
  <rect fill="#d4a843" x="576" y="272" width="16" height="8"/>
  <rect fill="#d4a843" x="624" y="272" width="16" height="8"/>
  <rect fill="#d4a843" x="720" y="272" width="48" height="8"/>
  <rect fill="#d4a843" x="416" y="280" width="16" height="8"/>
  <rect fill="#d4a843" x="488" y="280" width="8" height="8"/>
  <rect fill="#d4a843" x="584" y="280" width="8" height="8"/>
  <rect fill="#d4a843" x="624" y="280" width="8" height="8"/>
  <rect fill="#d4a843" x="728" y="280" width="40" height="8"/>
  <rect fill="#f0d68a" x="608" y="48" width="64" height="8"/>
  <rect fill="#f0d68a" x="80" y="56" width="104" height="8"/>
  <rect fill="#f0d68a" x="608" y="56" width="64" height="8"/>
  <rect fill="#f0d68a" x="1096" y="56" width="104" height="8"/>
  <rect fill="#f0d68a" x="64" y="64" width="96" height="8"/>
  <rect fill="#f0d68a" x="168" y="64" width="32" height="8"/>
  <rect fill="#f0d68a" x="608" y="64" width="64" height="8"/>
  <rect fill="#f0d68a" x="1080" y="64" width="40" height="8"/>
  <rect fill="#f0d68a" x="1128" y="64" width="88" height="8"/>
  <rect fill="#f0d68a" x="48" y="72" width="168" height="8"/>
  <rect fill="#f0d68a" x="1064" y="72" width="168" height="8"/>
  <rect fill="#f0d68a" x="512" y="208" width="48" height="8"/>
  <rect fill="#f0d68a" x="672" y="208" width="16" height="8"/>
  <rect fill="#f0d68a" x="784" y="208" width="16" height="8"/>
  <rect fill="#f0d68a" x="128" y="216" width="136" height="8"/>
  <rect fill="#f0d68a" x="512" y="216" width="48" height="8"/>
  <rect fill="#f0d68a" x="672" y="216" width="16" height="8"/>
  <rect fill="#f0d68a" x="784" y="216" width="16" height="8"/>
  <rect fill="#f0d68a" x="1016" y="216" width="136" height="8"/>
  <rect fill="#f0d68a" x="144" y="224" width="104" height="8"/>
  <rect fill="#f0d68a" x="528" y="224" width="16" height="8"/>
  <rect fill="#f0d68a" x="656" y="224" width="16" height="8"/>
  <rect fill="#f0d68a" x="688" y="224" width="16" height="8"/>
  <rect fill="#f0d68a" x="784" y="224" width="16" height="8"/>
  <rect fill="#f0d68a" x="1032" y="224" width="104" height="8"/>
  <rect fill="#f0d68a" x="528" y="232" width="16" height="8"/>
  <rect fill="#f0d68a" x="656" y="232" width="16" height="8"/>
  <rect fill="#f0d68a" x="688" y="232" width="16" height="8"/>
  <rect fill="#f0d68a" x="784" y="232" width="16" height="8"/>
  <rect fill="#f0d68a" x="528" y="240" width="16" height="8"/>
  <rect fill="#f0d68a" x="656" y="240" width="48" height="8"/>
  <rect fill="#f0d68a" x="784" y="240" width="16" height="8"/>
  <rect fill="#f0d68a" x="528" y="248" width="16" height="8"/>
  <rect fill="#f0d68a" x="656" y="248" width="48" height="8"/>
  <rect fill="#f0d68a" x="784" y="248" width="16" height="8"/>
  <rect fill="#f0d68a" x="528" y="256" width="16" height="8"/>
  <rect fill="#f0d68a" x="656" y="256" width="16" height="8"/>
  <rect fill="#f0d68a" x="688" y="256" width="16" height="8"/>
  <rect fill="#f0d68a" x="784" y="256" width="16" height="8"/>
  <rect fill="#f0d68a" x="528" y="264" width="16" height="8"/>
  <rect fill="#f0d68a" x="656" y="264" width="16" height="8"/>
  <rect fill="#f0d68a" x="688" y="264" width="16" height="8"/>
  <rect fill="#f0d68a" x="784" y="264" width="16" height="8"/>
  <rect fill="#f0d68a" x="512" y="272" width="48" height="8"/>
  <rect fill="#f0d68a" x="656" y="272" width="16" height="8"/>
  <rect fill="#f0d68a" x="688" y="272" width="16" height="8"/>
  <rect fill="#f0d68a" x="784" y="272" width="48" height="8"/>
  <rect fill="#f0d68a" x="520" y="280" width="16" height="8"/>
  <rect fill="#f0d68a" x="544" y="280" width="16" height="8"/>
  <rect fill="#f0d68a" x="688" y="280" width="8" height="8"/>
  <rect fill="#f0d68a" x="808" y="280" width="8" height="8"/>
  <rect fill="#8b6914" x="48" y="104" width="232" height="8"/>
  <rect fill="#8b6914" x="736" y="104" width="8" height="8"/>
  <rect fill="#8b6914" x="1000" y="104" width="232" height="8"/>
  <rect fill="#8b6914" x="32" y="112" width="264" height="8"/>
  <rect fill="#8b6914" x="736" y="112" width="8" height="8"/>
  <rect fill="#8b6914" x="984" y="112" width="264" height="8"/>
  <rect fill="#8b6914" x="16" y="120" width="296" height="8"/>
  <rect fill="#8b6914" x="736" y="120" width="8" height="8"/>
  <rect fill="#8b6914" x="968" y="120" width="296" height="8"/>
  <rect fill="#8b6914" x="560" y="152" width="160" height="8"/>
  <rect fill="#8b6914" x="560" y="160" width="160" height="8"/>
  <rect fill="#8b6914" x="64" y="184" width="264" height="8"/>
  <rect fill="#8b6914" x="952" y="184" width="264" height="8"/>
  <rect fill="#8b6914" x="80" y="192" width="232" height="8"/>
  <rect fill="#8b6914" x="968" y="192" width="232" height="8"/>
  <rect fill="#d0d0d8" x="736" y="24" width="8" height="8"/>
  <rect fill="#d0d0d8" x="736" y="32" width="8" height="8"/>
  <rect fill="#d0d0d8" x="736" y="40" width="8" height="8"/>
  <rect fill="#d0d0d8" x="736" y="48" width="8" height="8"/>
  <rect fill="#d0d0d8" x="736" y="56" width="8" height="8"/>
  <rect fill="#d0d0d8" x="736" y="64" width="8" height="8"/>
  <rect fill="#d0d0d8" x="736" y="72" width="8" height="8"/>
  <rect fill="#d0d0d8" x="736" y="80" width="8" height="8"/>
  <rect fill="#d0d0d8" x="736" y="88" width="8" height="8"/>
  <rect fill="#d0d0d8" x="432" y="280" width="16" height="8"/>
  <rect fill="#d0d0d8" x="464" y="280" width="24" height="8"/>
  <rect fill="#d0d0d8" x="496" y="280" width="8" height="8"/>
  <rect fill="#d0d0d8" x="512" y="280" width="8" height="8"/>
  <rect fill="#d0d0d8" x="536" y="280" width="8" height="8"/>
  <rect fill="#d0d0d8" x="560" y="280" width="8" height="8"/>
  <rect fill="#d0d0d8" x="576" y="280" width="8" height="8"/>
  <rect fill="#d0d0d8" x="632" y="280" width="8" height="8"/>
  <rect fill="#d0d0d8" x="656" y="280" width="16" height="8"/>
  <rect fill="#d0d0d8" x="696" y="280" width="8" height="8"/>
  <rect fill="#d0d0d8" x="720" y="280" width="8" height="8"/>
  <rect fill="#d0d0d8" x="784" y="280" width="24" height="8"/>
  <rect fill="#d0d0d8" x="816" y="280" width="16" height="8"/>
  <rect fill="#d0d0d8" x="856" y="280" width="8" height="8"/>
  <rect fill="#d0d0d8" x="880" y="280" width="8" height="8"/>
  <rect fill="#d0d0d8" x="896" y="280" width="8" height="8"/>
  <rect fill="#d0d0d8" x="912" y="280" width="24" height="8"/>
  <rect fill="#d0d0d8" x="944" y="280" width="8" height="8"/>
  <rect fill="#d0d0d8" x="960" y="280" width="8" height="8"/>
  <rect fill="#d0d0d8" x="984" y="280" width="8" height="8"/>
  <rect fill="#d0d0d8" x="1008" y="280" width="16" height="8"/>
  <rect fill="#d0d0d8" x="1040" y="280" width="8" height="8"/>
  <rect fill="#d0d0d8" x="1056" y="280" width="8" height="8"/>
  <rect fill="#d0d0d8" x="432" y="288" width="8" height="8"/>
  <rect fill="#d0d0d8" x="448" y="288" width="8" height="8"/>
  <rect fill="#d0d0d8" x="464" y="288" width="8" height="8"/>
  <rect fill="#d0d0d8" x="496" y="288" width="8" height="8"/>
  <rect fill="#d0d0d8" x="512" y="288" width="8" height="8"/>
  <rect fill="#d0d0d8" x="528" y="288" width="8" height="8"/>
  <rect fill="#d0d0d8" x="544" y="288" width="8" height="8"/>
  <rect fill="#d0d0d8" x="560" y="288" width="8" height="8"/>
  <rect fill="#d0d0d8" x="576" y="288" width="8" height="8"/>
  <rect fill="#d0d0d8" x="624" y="288" width="8" height="8"/>
  <rect fill="#d0d0d8" x="640" y="288" width="8" height="8"/>
  <rect fill="#d0d0d8" x="656" y="288" width="8" height="8"/>
  <rect fill="#d0d0d8" x="672" y="288" width="8" height="8"/>
  <rect fill="#d0d0d8" x="688" y="288" width="8" height="8"/>
  <rect fill="#d0d0d8" x="704" y="288" width="8" height="8"/>
  <rect fill="#d0d0d8" x="720" y="288" width="8" height="8"/>
  <rect fill="#d0d0d8" x="784" y="288" width="8" height="8"/>
  <rect fill="#d0d0d8" x="816" y="288" width="8" height="8"/>
  <rect fill="#d0d0d8" x="832" y="288" width="8" height="8"/>
  <rect fill="#d0d0d8" x="848" y="288" width="8" height="8"/>
  <rect fill="#d0d0d8" x="864" y="288" width="8" height="8"/>
  <rect fill="#d0d0d8" x="880" y="288" width="24" height="8"/>
  <rect fill="#d0d0d8" x="912" y="288" width="8" height="8"/>
  <rect fill="#d0d0d8" x="944" y="288" width="8" height="8"/>
  <rect fill="#d0d0d8" x="960" y="288" width="8" height="8"/>
  <rect fill="#d0d0d8" x="976" y="288" width="8" height="8"/>
  <rect fill="#d0d0d8" x="992" y="288" width="8" height="8"/>
  <rect fill="#d0d0d8" x="1008" y="288" width="8" height="8"/>
  <rect fill="#d0d0d8" x="1024" y="288" width="8" height="8"/>
  <rect fill="#d0d0d8" x="1040" y="288" width="16" height="8"/>
  <rect fill="#d0d0d8" x="432" y="296" width="16" height="8"/>
  <rect fill="#d0d0d8" x="464" y="296" width="16" height="8"/>
  <rect fill="#d0d0d8" x="496" y="296" width="24" height="8"/>
  <rect fill="#d0d0d8" x="528" y="296" width="24" height="8"/>
  <rect fill="#d0d0d8" x="560" y="296" width="8" height="8"/>
  <rect fill="#d0d0d8" x="576" y="296" width="8" height="8"/>
  <rect fill="#d0d0d8" x="624" y="296" width="8" height="8"/>
  <rect fill="#d0d0d8" x="640" y="296" width="8" height="8"/>
  <rect fill="#d0d0d8" x="656" y="296" width="16" height="8"/>
  <rect fill="#d0d0d8" x="688" y="296" width="24" height="8"/>
  <rect fill="#d0d0d8" x="720" y="296" width="8" height="8"/>
  <rect fill="#d0d0d8" x="784" y="296" width="16" height="8"/>
  <rect fill="#d0d0d8" x="816" y="296" width="16" height="8"/>
  <rect fill="#d0d0d8" x="848" y="296" width="24" height="8"/>
  <rect fill="#d0d0d8" x="880" y="296" width="8" height="8"/>
  <rect fill="#d0d0d8" x="896" y="296" width="8" height="8"/>
  <rect fill="#d0d0d8" x="912" y="296" width="16" height="8"/>
  <rect fill="#d0d0d8" x="944" y="296" width="8" height="8"/>
  <rect fill="#d0d0d8" x="960" y="296" width="8" height="8"/>
  <rect fill="#d0d0d8" x="976" y="296" width="8" height="8"/>
  <rect fill="#d0d0d8" x="992" y="296" width="8" height="8"/>
  <rect fill="#d0d0d8" x="1008" y="296" width="16" height="8"/>
  <rect fill="#d0d0d8" x="1040" y="296" width="8" height="8"/>
  <rect fill="#d0d0d8" x="432" y="304" width="8" height="8"/>
  <rect fill="#d0d0d8" x="448" y="304" width="8" height="8"/>
  <rect fill="#d0d0d8" x="464" y="304" width="8" height="8"/>
  <rect fill="#d0d0d8" x="496" y="304" width="8" height="8"/>
  <rect fill="#d0d0d8" x="512" y="304" width="8" height="8"/>
  <rect fill="#d0d0d8" x="528" y="304" width="8" height="8"/>
  <rect fill="#d0d0d8" x="544" y="304" width="8" height="8"/>
  <rect fill="#d0d0d8" x="568" y="304" width="8" height="8"/>
  <rect fill="#d0d0d8" x="624" y="304" width="8" height="8"/>
  <rect fill="#d0d0d8" x="640" y="304" width="8" height="8"/>
  <rect fill="#d0d0d8" x="656" y="304" width="8" height="8"/>
  <rect fill="#d0d0d8" x="672" y="304" width="8" height="8"/>
  <rect fill="#d0d0d8" x="688" y="304" width="8" height="8"/>
  <rect fill="#d0d0d8" x="704" y="304" width="8" height="8"/>
  <rect fill="#d0d0d8" x="720" y="304" width="8" height="8"/>
  <rect fill="#d0d0d8" x="784" y="304" width="8" height="8"/>
  <rect fill="#d0d0d8" x="816" y="304" width="8" height="8"/>
  <rect fill="#d0d0d8" x="832" y="304" width="8" height="8"/>
  <rect fill="#d0d0d8" x="848" y="304" width="8" height="8"/>
  <rect fill="#d0d0d8" x="864" y="304" width="8" height="8"/>
  <rect fill="#d0d0d8" x="880" y="304" width="8" height="8"/>
  <rect fill="#d0d0d8" x="896" y="304" width="8" height="8"/>
  <rect fill="#d0d0d8" x="912" y="304" width="8" height="8"/>
  <rect fill="#d0d0d8" x="944" y="304" width="24" height="8"/>
  <rect fill="#d0d0d8" x="976" y="304" width="8" height="8"/>
  <rect fill="#d0d0d8" x="992" y="304" width="8" height="8"/>
  <rect fill="#d0d0d8" x="1008" y="304" width="8" height="8"/>
  <rect fill="#d0d0d8" x="1024" y="304" width="8" height="8"/>
  <rect fill="#d0d0d8" x="1040" y="304" width="16" height="8"/>
  <rect fill="#d0d0d8" x="432" y="312" width="16" height="8"/>
  <rect fill="#d0d0d8" x="464" y="312" width="24" height="8"/>
  <rect fill="#d0d0d8" x="496" y="312" width="8" height="8"/>
  <rect fill="#d0d0d8" x="512" y="312" width="8" height="8"/>
  <rect fill="#d0d0d8" x="528" y="312" width="8" height="8"/>
  <rect fill="#d0d0d8" x="544" y="312" width="8" height="8"/>
  <rect fill="#d0d0d8" x="568" y="312" width="8" height="8"/>
  <rect fill="#d0d0d8" x="632" y="312" width="8" height="8"/>
  <rect fill="#d0d0d8" x="656" y="312" width="8" height="8"/>
  <rect fill="#d0d0d8" x="672" y="312" width="8" height="8"/>
  <rect fill="#d0d0d8" x="688" y="312" width="8" height="8"/>
  <rect fill="#d0d0d8" x="704" y="312" width="8" height="8"/>
  <rect fill="#d0d0d8" x="720" y="312" width="24" height="8"/>
  <rect fill="#d0d0d8" x="784" y="312" width="8" height="8"/>
  <rect fill="#d0d0d8" x="816" y="312" width="8" height="8"/>
  <rect fill="#d0d0d8" x="832" y="312" width="8" height="8"/>
  <rect fill="#d0d0d8" x="848" y="312" width="8" height="8"/>
  <rect fill="#d0d0d8" x="864" y="312" width="8" height="8"/>
  <rect fill="#d0d0d8" x="880" y="312" width="8" height="8"/>
  <rect fill="#d0d0d8" x="896" y="312" width="8" height="8"/>
  <rect fill="#d0d0d8" x="912" y="312" width="24" height="8"/>
  <rect fill="#d0d0d8" x="944" y="312" width="8" height="8"/>
  <rect fill="#d0d0d8" x="960" y="312" width="8" height="8"/>
  <rect fill="#d0d0d8" x="984" y="312" width="8" height="8"/>
  <rect fill="#d0d0d8" x="1008" y="312" width="8" height="8"/>
  <rect fill="#d0d0d8" x="1024" y="312" width="8" height="8"/>
  <rect fill="#d0d0d8" x="1040" y="312" width="8" height="8"/>
  <rect fill="#d0d0d8" x="1056" y="312" width="8" height="8"/>
  <rect fill="#2a4a7f" x="592" y="72" width="16" height="8"/>
  <rect fill="#2a4a7f" x="672" y="72" width="16" height="8"/>
  <rect fill="#2a4a7f" x="576" y="80" width="8" height="8"/>
  <rect fill="#2a4a7f" x="592" y="80" width="16" height="8"/>
  <rect fill="#2a4a7f" x="672" y="80" width="16" height="8"/>
  <rect fill="#2a4a7f" x="704" y="80" width="8" height="8"/>
  <rect fill="#2a4a7f" x="560" y="88" width="8" height="8"/>
  <rect fill="#2a4a7f" x="592" y="88" width="16" height="8"/>
  <rect fill="#2a4a7f" x="672" y="88" width="16" height="8"/>
  <rect fill="#2a4a7f" x="720" y="88" width="8" height="8"/>
  <rect fill="#2a4a7f" x="544" y="96" width="8" height="8"/>
  <rect fill="#2a4a7f" x="592" y="96" width="16" height="8"/>
  <rect fill="#2a4a7f" x="672" y="96" width="16" height="8"/>
  <rect fill="#2a4a7f" x="32" y="128" width="296" height="8"/>
  <rect fill="#2a4a7f" x="952" y="128" width="296" height="8"/>
  <rect fill="#2a4a7f" x="16" y="136" width="328" height="8"/>
  <rect fill="#2a4a7f" x="936" y="136" width="328" height="8"/>
  <rect fill="#2a4a7f" x="0" y="144" width="200" height="8"/>
  <rect fill="#2a4a7f" x="208" y="144" width="152" height="8"/>
  <rect fill="#2a4a7f" x="920" y="144" width="160" height="8"/>
  <rect fill="#2a4a7f" x="1088" y="144" width="192" height="8"/>
  <rect fill="#2a4a7f" x="32" y="168" width="328" height="8"/>
  <rect fill="#2a4a7f" x="920" y="168" width="328" height="8"/>
  <rect fill="#2a4a7f" x="48" y="176" width="296" height="8"/>
  <rect fill="#2a4a7f" x="936" y="176" width="296" height="8"/>
  <rect fill="#1a2a4f" x="576" y="104" width="128" height="8"/>
  <rect fill="#1a2a4f" x="576" y="112" width="128" height="8"/>
  <rect fill="#1a2a4f" x="576" y="120" width="128" height="8"/>
  <rect fill="#1a2a4f" x="576" y="128" width="128" height="8"/>
  <rect fill="#1a2a4f" x="560" y="136" width="160" height="8"/>
  <rect fill="#1a2a4f" x="560" y="144" width="160" height="8"/>
  <rect fill="#1a2a4f" x="16" y="152" width="360" height="8"/>
  <rect fill="#1a2a4f" x="904" y="152" width="360" height="8"/>
  <rect fill="#1a2a4f" x="0" y="160" width="392" height="8"/>
  <rect fill="#1a2a4f" x="888" y="160" width="392" height="8"/>
  <rect fill="#f5e6a3" x="360" y="24" width="8" height="8"/>
  <rect fill="#f5e6a3" x="920" y="24" width="8" height="8"/>
  <rect fill="#f5e6a3" x="592" y="32" width="96" height="8"/>
  <rect fill="#f5e6a3" x="240" y="40" width="8" height="8"/>
  <rect fill="#f5e6a3" x="592" y="40" width="96" height="8"/>
  <rect fill="#f5e6a3" x="1040" y="40" width="8" height="8"/>
  <rect fill="#f5e6a3" x="160" y="64" width="8" height="8"/>
  <rect fill="#f5e6a3" x="1120" y="64" width="8" height="8"/>
  <rect fill="#f5e6a3" x="400" y="96" width="8" height="8"/>
  <rect fill="#f5e6a3" x="880" y="96" width="8" height="8"/>
  <rect fill="#f5e6a3" x="200" y="144" width="8" height="8"/>
  <rect fill="#f5e6a3" x="1080" y="144" width="8" height="8"/>
  <rect fill="#f5f0e8" x="736" y="8" width="8" height="8"/>
  <rect fill="#f5f0e8" x="736" y="16" width="8" height="8"/>
  <rect fill="#f5f0e8" x="96" y="32" width="40" height="8"/>
  <rect fill="#f5f0e8" x="1144" y="32" width="40" height="8"/>
  <rect fill="#f5f0e8" x="80" y="40" width="72" height="8"/>
  <rect fill="#f5f0e8" x="1128" y="40" width="72" height="8"/>
  <rect fill="#f5f0e8" x="64" y="48" width="104" height="8"/>
  <rect fill="#f5f0e8" x="1112" y="48" width="104" height="8"/>
</svg>