<svg xmlns="http://www.w3.org/2000/svg" viewBox="0 0 960 192" shape-render="crispEdges" width="960" height="192">
  <rect fill="#0a0a12" width="960" height="192"/>
  <rect fill="#f5e6a3" x="160" y="0" width="16" height="16"/>
  <rect fill="#f5e6a3" x="384" y="0" width="48" height="16"/>
  <rect fill="#f5e6a3" x="544" y="0" width="48" height="16"/>
  <rect fill="#f5e6a3" x="768" y="0" width="16" height="16"/>
  <rect fill="#f5e6a3" x="144" y="16" width="48" height="16"/>
  <rect fill="#f5e6a3" x="400" y="16" width="16" height="16"/>
  <rect fill="#f5e6a3" x="560" y="16" width="16" height="16"/>
  <rect fill="#f5e6a3" x="752" y="16" width="48" height="16"/>
  <rect fill="#f5e6a3" x="48" y="32" width="16" height="16"/>
  <rect fill="#f5e6a3" x="160" y="32" width="16" height="16"/>
  <rect fill="#f5e6a3" x="768" y="32" width="16" height="16"/>
  <rect fill="#f5e6a3" x="880" y="32" width="16" height="16"/>
  <rect fill="#f5e6a3" x="32" y="48" width="48" height="16"/>
  <rect fill="#f5e6a3" x="864" y="48" width="48" height="16"/>
  <rect fill="#f5e6a3" x="48" y="64" width="16" height="16"/>
  <rect fill="#f5e6a3" x="880" y="64" width="16" height="16"/>
  <rect fill="#f5e6a3" x="48" y="112" width="16" height="16"/>
  <rect fill="#f5e6a3" x="880" y="112" width="16" height="16"/>
  <rect fill="#f5e6a3" x="32" y="128" width="48" height="16"/>
  <rect fill="#f5e6a3" x="864" y="128" width="48" height="16"/>
  <rect fill="#f5e6a3" x="48" y="144" width="16" height="16"/>
  <rect fill="#f5e6a3" x="160" y="144" width="16" height="16"/>
  <rect fill="#f5e6a3" x="768" y="144" width="16" height="16"/>
  <rect fill="#f5e6a3" x="880" y="144" width="16" height="16"/>
  <rect fill="#f5e6a3" x="144" y="160" width="48" height="16"/>
  <rect fill="#f5e6a3" x="400" y="160" width="16" height="16"/>
  <rect fill="#f5e6a3" x="560" y="160" width="16" height="16"/>
  <rect fill="#f5e6a3" x="752" y="160" width="48" height="16"/>
  <rect fill="#f5e6a3" x="160" y="176" width="16" height="16"/>
  <rect fill="#f5e6a3" x="384" y="176" width="48" height="16"/>
  <rect fill="#f5e6a3" x="544" y="176" width="48" height="16"/>
  <rect fill="#f5e6a3" x="768" y="176" width="16" height="16"/>
  <rect fill="#d4a843" x="128" y="32" width="32" height="16"/>
  <rect fill="#d4a843" x="320" y="32" width="48" height="16"/>
  <rect fill="#d4a843" x="576" y="32" width="48" height="16"/>
  <rect fill="#d4a843" x="720" y="32" width="48" height="16"/>
  <rect fill="#d4a843" x="128" y="48" width="48" height="16"/>
  <rect fill="#d4a843" x="320" y="48" width="48" height="16"/>
  <rect fill="#d4a843" x="576" y="48" width="48" height="16"/>
  <rect fill="#d4a843" x="720" y="48" width="48" height="16"/>
  <rect fill="#d4a843" x="128" y="64" width="48" height="16"/>
  <rect fill="#d4a843" x="320" y="64" width="48" height="16"/>
  <rect fill="#d4a843" x="576" y="64" width="48" height="16"/>
  <rect fill="#d4a843" x="720" y="64" width="48" height="16"/>
  <rect fill="#d4a843" x="128" y="80" width="96" height="16"/>
  <rect fill="#d4a843" x="272" y="80" width="96" height="16"/>
  <rect fill="#d4a843" x="576" y="80" width="48" height="16"/>
  <rect fill="#d4a843" x="672" y="80" width="48" height="16"/>
  <rect fill="#d4a843" x="128" y="96" width="96" height="16"/>
  <rect fill="#d4a843" x="272" y="96" width="96" height="16"/>
  <rect fill="#d4a843" x="576" y="96" width="48" height="16"/>
  <rect fill="#d4a843" x="672" y="96" width="48" height="16"/>
  <rect fill="#d4a843" x="128" y="112" width="96" height="16"/>
  <rect fill="#d4a843" x="272" y="112" width="96" height="16"/>
  <rect fill="#d4a843" x="576" y="112" width="48" height="16"/>
  <rect fill="#d4a843" x="672" y="112" width="48" height="16"/>
  <rect fill="#d4a843" x="128" y="128" width="48" height="16"/>
  <rect fill="#d4a843" x="224" y="128" width="48" height="16"/>
  <rect fill="#d4a843" x="320" y="128" width="48" height="16"/>
  <rect fill="#d4a843" x="576" y="128" width="96" height="16"/>
  <rect fill="#d4a843" x="128" y="144" width="32" height="16"/>
  <rect fill="#d4a843" x="224" y="144" width="48" height="16"/>
  <rect fill="#d4a843" x="320" y="144" width="48" height="16"/>
  <rect fill="#d4a843" x="576" y="144" width="96" height="16"/>
  <rect fill="#d4a843" x="128" y="160" width="16" height="16"/>
  <rect fill="#d4a843" x="224" y="160" width="48" height="16"/>
  <rect fill="#d4a843" x="320" y="160" width="48" height="16"/>
  <rect fill="#d4a843" x="576" y="160" width="96" height="16"/>
  <rect fill="#d4a843" x="128" y="176" width="32" height="16"/>
  <rect fill="#d4a843" x="320" y="176" width="48" height="16"/>
  <rect fill="#d4a843" x="592" y="176" width="32" height="16"/>
  <rect fill="#f0d68a" x="400" y="32" width="144" height="16"/>
  <rect fill="#f0d68a" x="848" y="32" width="32" height="16"/>
  <rect fill="#f0d68a" x="400" y="48" width="144" height="16"/>
  <rect fill="#f0d68a" x="848" y="48" width="16" height="16"/>
  <rect fill="#f0d68a" x="400" y="64" width="144" height="16"/>
  <rect fill="#f0d68a" x="848" y="64" width="32" height="16"/>
  <rect fill="#f0d68a" x="448" y="80" width="48" height="16"/>
  <rect fill="#f0d68a" x="800" y="80" width="48" height="16"/>
  <rect fill="#f0d68a" x="896" y="80" width="48" height="16"/>
  <rect fill="#f0d68a" x="448" y="96" width="48" height="16"/>
  <rect fill="#f0d68a" x="800" y="96" width="48" height="16"/>
  <rect fill="#f0d68a" x="896" y="96" width="48" height="16"/>
  <rect fill="#f0d68a" x="448" y="112" width="48" height="16"/>
  <rect fill="#f0d68a" x="800" y="112" width="48" height="16"/>
  <rect fill="#f0d68a" x="896" y="112" width="48" height="16"/>
  <rect fill="#f0d68a" x="448" y="128" width="48" height="16"/>
  <rect fill="#f0d68a" x="800" y="128" width="48" height="16"/>
  <rect fill="#f0d68a" x="912" y="128" width="32" height="16"/>
  <rect fill="#f0d68a" x="448" y="144" width="48" height="16"/>
  <rect fill="#f0d68a" x="800" y="144" width="48" height="16"/>
  <rect fill="#f0d68a" x="896" y="144" width="48" height="16"/>
  <rect fill="#f0d68a" x="448" y="160" width="48" height="16"/>
  <rect fill="#f0d68a" x="800" y="160" width="48" height="16"/>
  <rect fill="#f0d68a" x="896" y="160" width="48" height="16"/>
  <rect fill="#f0d68a" x="448" y="176" width="48" height="16"/>
  <rect fill="#f0d68a" x="800" y="176" width="144" height="16"/>
</svg>